<?xml version="1.0" encoding="utf-8"?>
<!-- Generator: Adobe Illustrator 28.1.0, SVG Export Plug-In . SVG Version: 6.00 Build 0)  -->
<svg version="1.1" id="Camada_1" xmlns="http://www.w3.org/2000/svg" xmlns:xlink="http://www.w3.org/1999/xlink" x="0px" y="0px"
	 viewBox="0 0 180 180" style="enable-background:new 0 0 180 180;" xml:space="preserve">
<style type="text/css">
	.st0{fill:#25282F;}
	.st1{fill:#EDEDED;}
	.st2{opacity:0.51;fill:url(#SVGID_1_);}
	.st3{opacity:0.51;fill:url(#SVGID_00000173157266140671184250000005762485914655038863_);}
	.st4{fill:#FED300;}
</style>
<g>
	<rect class="st0" width="180" height="180"/>
	<g>
		<path class="st1" d="M122.89,59.89c-11.77,0-21.95,6.75-26.9,16.59c-4.95-9.84-15.14-16.59-26.9-16.59
			c-16.63,0-30.11,13.48-30.11,30.11s13.48,30.11,30.11,30.11c11.77,0,21.95-6.75,26.9-16.59c4.95,9.84,15.14,16.59,26.9,16.59
			c16.63,0,30.11-13.48,30.11-30.11S139.52,59.89,122.89,59.89z M69.13,109.35c-10.69,0-19.35-8.66-19.35-19.35
			c0-10.69,8.66-19.35,19.35-19.35C83.78,70.65,90.24,90,90.24,90S82.58,109.35,69.13,109.35z M122.89,109.35
			c-13.45,0-21.11-19.35-21.11-19.35s6.47-19.35,21.11-19.35c10.69,0,19.35,8.66,19.35,19.35
			C142.24,100.69,133.58,109.35,122.89,109.35z"/>
		<linearGradient id="SVGID_1_" gradientUnits="userSpaceOnUse" x1="74.787" y1="108.2058" x2="94.6449" y2="100.1827">
			<stop  offset="0" style="stop-color:#FFFFFF;stop-opacity:0"/>
			<stop  offset="1" style="stop-color:#000000;stop-opacity:0.7"/>
		</linearGradient>
		<path class="st2" d="M90.24,90c0,0,2.99,8.3,5.75,13.51c-1.16,2.1-5.55,10.85-16.99,14.92c0.03-0.01-4.22-10.25-4.22-10.25
			S83.38,105.53,90.24,90z"/>
		
			<linearGradient id="SVGID_00000080886770163094628600000004391366187312360872_" gradientUnits="userSpaceOnUse" x1="-84.0121" y1="372.745" x2="-64.1541" y2="364.7218" gradientTransform="matrix(-1 0 0 -1 33.1801 444.5342)">
			<stop  offset="0" style="stop-color:#FFFFFF;stop-opacity:0"/>
			<stop  offset="1" style="stop-color:#000000;stop-opacity:0.7"/>
		</linearGradient>
		<path style="opacity:0.51;fill:url(#SVGID_00000080886770163094628600000004391366187312360872_);" d="M101.74,90
			c0,0-2.99-8.3-5.75-13.51c1.16-2.1,5.44-10.84,16.99-14.92c-0.03,0.01,4.22,10.25,4.22,10.25S108.14,73.72,101.74,90z"/>
		<path class="st4" d="M66.08,121.71c-15.21-1.36-28.24-13.6-29.6-28.81C34.72,73.07,52.06,56.52,71.9,58.29
			c8.28,0.74,15.67,4.71,20.92,10.62c-6-8.36-15.45-14.1-26.2-15.05C44,51.83,25.13,70.7,27.15,93.31
			c1.54,17.33,15.5,31.29,32.84,32.84c13.48,1.2,25.63-5.02,32.81-15.03C86.37,118.36,76.7,122.66,66.08,121.71z"/>
		<path class="st4" d="M66.34,121.71c-15.21-1.36-28.24-13.6-29.6-28.81c-1.77-19.84,15.57-36.39,35.41-34.62
			c8.28,0.74,15.67,4.71,20.92,10.62c-6-8.36-15.45-14.1-26.2-15.05C44.25,51.83,25.38,70.7,27.4,93.31
			c1.54,17.33,15.5,31.29,32.84,32.84c13.48,1.2,25.63-5.02,32.81-15.03C86.62,118.36,76.95,122.66,66.34,121.71z"/>
	</g>
</g>
</svg>
